<svg width="199" height="28" viewBox="0 0 199 28" fill="none" xmlns="http://www.w3.org/2000/svg">
<path d="M7.66667 2.59612V0H12.7372C14.171 0 15.3333 1.16232 15.3333 2.59612H7.66667ZM11.5 27.2593C9.92407 27.2593 8.43845 26.9508 7.04311 26.3337C5.64778 25.7167 4.42878 24.8786 3.38611 23.8194C2.34259 22.7593 1.51715 21.5205 0.909779 20.1031C0.302409 18.6856 -0.000850062 17.1768 1.78961e-06 15.5767C1.78961e-06 13.9758 0.303687 12.4666 0.911057 11.0491C1.51843 9.6316 2.34345 8.39326 3.38611 7.33404C4.42963 6.27396 5.64906 5.43541 7.04439 4.8184C8.43972 4.20139 9.92493 3.89331 11.5 3.89418C12.8204 3.89418 14.0875 4.11052 15.3014 4.54321C16.5153 4.9759 17.6546 5.60329 18.7194 6.4254L20.5083 4.60811L20.9161 5.02236C21.6824 5.80078 21.6824 7.05001 20.9161 7.82843L20.5083 8.24268C21.3176 9.3244 21.9352 10.4818 22.3611 11.715C22.787 12.9481 23 14.2354 23 15.5767C23 17.1777 22.6963 18.6869 22.0889 20.1044C21.4816 21.5218 20.6566 22.7602 19.6139 23.8194C18.5704 24.8795 17.3509 25.718 15.9556 26.335C14.5603 26.952 13.0751 27.2601 11.5 27.2593ZM11.5 24.6631C13.9704 24.6631 16.0787 23.7761 17.825 22.0021C19.5713 20.2281 20.4444 18.0863 20.4444 15.5767C20.4444 13.0671 19.5713 10.9253 17.825 9.15132C16.0787 7.37731 13.9704 6.4903 11.5 6.4903C9.02963 6.4903 6.9213 7.37731 5.175 9.15132C3.42871 10.9253 2.55556 13.0671 2.55556 15.5767C2.55556 18.0863 3.42871 20.2281 5.175 22.0021C6.9213 23.7761 9.02963 24.6631 11.5 24.6631Z" fill="white"/>
<path d="M6.38867 12.421V10.3845H16.6109V12.421H12.8004V22.0671H10.1992V12.421H6.38867Z" fill="white"/>
<path d="M50.952 2.6V6.44H44.392V25H40.552V6.44H33.96V2.6H40.552H44.392H50.952ZM53.8263 25V9H57.6663V25H53.8263ZM53.8263 2.6H57.6663V6.44H53.8263V2.6ZM78.6658 8.552C79.5618 8.552 80.3404 8.72267 81.0018 9.064C81.6844 9.40533 82.2391 9.87467 82.6658 10.472C83.0924 11.0693 83.4124 11.7627 83.6258 12.552C83.8391 13.3413 83.9458 14.1947 83.9458 15.112V25H80.1058V15.112C80.1058 14.3653 79.8391 13.7253 79.3058 13.192C78.7938 12.6587 78.1538 12.392 77.3858 12.392C76.6178 12.392 75.9778 12.6587 75.4658 13.192C74.9324 13.7253 74.6658 14.3653 74.6658 15.112V25H70.8258V15.112C70.8258 14.3653 70.5591 13.7253 70.0258 13.192C69.7698 12.9147 69.4711 12.712 69.1298 12.584C68.8098 12.456 68.4684 12.392 68.1058 12.392C67.3164 12.392 66.6658 12.6587 66.1538 13.192C65.6204 13.7253 65.3538 14.3653 65.3538 15.112V25H61.5138V9H65.3538V10.408C65.9724 9.87467 66.6231 9.43733 67.3058 9.096C67.9884 8.73333 68.6818 8.552 69.3858 8.552C70.3458 8.552 71.1351 8.744 71.7538 9.128C72.3724 9.512 72.9271 10.0453 73.4178 10.728C73.9938 10.1093 74.7404 9.59733 75.6578 9.192C76.5751 8.76533 77.5778 8.552 78.6658 8.552ZM99.1313 18.92H90.7473C90.9606 19.4107 91.2699 19.848 91.6753 20.232C92.1233 20.68 92.6246 21.0213 93.1793 21.256C93.7339 21.4693 94.3206 21.576 94.9392 21.576C95.8139 21.576 96.5926 21.3733 97.2753 20.968L101.275 22.568C100.507 23.464 99.5793 24.168 98.4913 24.68C97.4033 25.1707 96.2193 25.416 94.9392 25.416C93.7659 25.416 92.6673 25.2027 91.6433 24.776C90.6193 24.328 89.7233 23.72 88.9553 22.952C88.1873 22.184 87.5793 21.288 87.1313 20.264C86.7046 19.24 86.4913 18.152 86.4913 17C86.4913 15.8267 86.7046 14.728 87.1313 13.704C87.5793 12.68 88.1873 11.784 88.9553 11.016C89.7233 10.248 90.6193 9.65067 91.6433 9.224C92.6673 8.776 93.7659 8.552 94.9392 8.552C96.1126 8.552 97.2113 8.776 98.2353 9.224C99.2593 9.65067 100.155 10.248 100.923 11.016C101.691 11.784 102.289 12.68 102.715 13.704C103.163 14.728 103.387 15.8267 103.387 17C103.387 17.6827 103.313 18.3227 103.163 18.92H99.1313ZM94.9392 12.392C93.7019 12.392 92.6139 12.84 91.6753 13.736C91.2699 14.1413 90.9606 14.5893 90.7473 15.08H99.1313C98.9179 14.5893 98.6086 14.1413 98.2033 13.736C97.3073 12.84 96.2193 12.392 94.9392 12.392ZM123.416 8.552C124.312 8.552 125.09 8.72267 125.752 9.064C126.434 9.40533 126.989 9.87467 127.416 10.472C127.842 11.0693 128.162 11.7627 128.376 12.552C128.589 13.3413 128.696 14.1947 128.696 15.112V25H124.856V15.112C124.856 14.3653 124.589 13.7253 124.056 13.192C123.544 12.6587 122.904 12.392 122.136 12.392C121.368 12.392 120.728 12.6587 120.216 13.192C119.682 13.7253 119.416 14.3653 119.416 15.112V25H115.576V15.112C115.576 14.3653 115.309 13.7253 114.776 13.192C114.52 12.9147 114.221 12.712 113.88 12.584C113.56 12.456 113.218 12.392 112.856 12.392C112.066 12.392 111.416 12.6587 110.904 13.192C110.37 13.7253 110.104 14.3653 110.104 15.112V25H106.264V9H110.104V10.408C110.722 9.87467 111.373 9.43733 112.056 9.096C112.738 8.73333 113.432 8.552 114.136 8.552C115.096 8.552 115.885 8.744 116.504 9.128C117.122 9.512 117.677 10.0453 118.168 10.728C118.744 10.1093 119.49 9.59733 120.408 9.192C121.325 8.76533 122.328 8.552 123.416 8.552ZM139.689 12.392C138.409 12.392 137.321 12.84 136.425 13.736C135.529 14.632 135.081 15.72 135.081 17C135.081 18.2587 135.529 19.336 136.425 20.232C136.852 20.68 137.343 21.0213 137.897 21.256C138.473 21.4693 139.071 21.576 139.689 21.576C140.308 21.576 140.895 21.4693 141.449 21.256C142.004 21.0213 142.505 20.68 142.953 20.232C143.849 19.336 144.297 18.2587 144.297 17C144.297 15.72 143.849 14.632 142.953 13.736C142.015 12.84 140.927 12.392 139.689 12.392ZM139.689 8.552C140.863 8.552 141.961 8.776 142.985 9.224C144.009 9.65067 144.905 10.248 145.673 11.016C146.441 11.784 147.039 12.68 147.465 13.704C147.913 14.728 148.137 15.8267 148.137 17C148.137 18.152 147.913 19.24 147.465 20.264C147.039 21.288 146.441 22.184 145.673 22.952C144.905 23.72 144.009 24.328 142.985 24.776C141.961 25.2027 140.863 25.416 139.689 25.416C138.516 25.416 137.417 25.2027 136.393 24.776C135.369 24.328 134.473 23.72 133.705 22.952C132.937 22.184 132.329 21.288 131.881 20.264C131.455 19.24 131.241 18.152 131.241 17C131.241 15.8267 131.455 14.728 131.881 13.704C132.329 12.68 132.937 11.784 133.705 11.016C134.473 10.248 135.369 9.65067 136.393 9.224C137.417 8.776 138.516 8.552 139.689 8.552ZM165.862 9V25H162.022V23.784C161.446 24.2747 160.795 24.68 160.07 25C159.344 25.2987 158.534 25.448 157.638 25.448C156.592 25.448 155.643 25.256 154.79 24.872C153.936 24.4667 153.2 23.9227 152.582 23.24C151.984 22.5573 151.515 21.7573 151.174 20.84C150.854 19.9227 150.694 18.9413 150.694 17.896V9H154.534V17.896C154.534 18.8987 154.907 19.7733 155.654 20.52C156.379 21.2453 157.254 21.608 158.278 21.608C159.323 21.608 160.208 21.2453 160.934 20.52C161.659 19.7947 162.022 18.92 162.022 17.896V9H165.862ZM177.925 8.552C178.971 8.552 179.92 8.75467 180.773 9.16C181.627 9.544 182.352 10.088 182.949 10.792C183.568 11.4747 184.037 12.2747 184.357 13.192C184.699 14.1093 184.869 15.0907 184.869 16.136V25H181.029V16.136C181.029 15.0693 180.656 14.184 179.909 13.48C179.184 12.7547 178.309 12.392 177.285 12.392C176.24 12.392 175.355 12.7547 174.629 13.48C173.904 14.2053 173.541 15.0907 173.541 16.136V25H169.701V9H173.541V10.216C174.117 9.72533 174.768 9.33067 175.493 9.032C176.219 8.712 177.029 8.552 177.925 8.552ZM197.157 25H193.637C192.911 25 192.229 24.8613 191.589 24.584C190.949 24.3067 190.394 23.9333 189.925 23.464C189.455 22.9733 189.082 22.408 188.805 21.768C188.527 21.128 188.389 20.4453 188.389 19.72V5.768L192.229 4.808V10.92H194.469L195.429 14.76H192.229V19.72C192.229 20.1253 192.367 20.4667 192.645 20.744C192.922 21.0213 193.253 21.16 193.637 21.16H196.197L197.157 25Z" fill="white"/>
</svg>
