<svg width="352" height="352" viewBox="0 0 352 352" fill="none" xmlns="http://www.w3.org/2000/svg">
<path d="M352 269.21H0V269.386H352V269.21Z" fill="#E0E0E0"/>
<path d="M265.872 276.665H241.654V276.841H265.872V276.665Z" fill="#E0E0E0"/>
<path d="M78.1724 276.749H64.543V276.925H78.1724V276.749Z" fill="#E0E0E0"/>
<path d="M176.703 276.341H149.078V276.517H176.703V276.341Z" fill="#E0E0E0"/>
<path d="M148.375 273.835H136.027V274.011H148.375V273.835Z" fill="#E0E0E0"/>
<path d="M298.891 273.926H261.586V274.102H298.891V273.926Z" fill="#E0E0E0"/>
<path d="M166.849 237.811H30.9132C29.8483 237.809 28.8276 237.385 28.0753 236.631C27.3229 235.878 26.9004 234.856 26.9004 233.791V42.7046C26.9097 41.6458 27.3363 40.6334 28.0876 39.8874C28.839 39.1413 29.8544 38.7218 30.9132 38.72H166.849C167.915 38.72 168.937 39.1435 169.691 39.8974C170.445 40.6512 170.868 41.6737 170.868 42.7398V233.791C170.868 234.857 170.445 235.88 169.691 236.634C168.937 237.388 167.915 237.811 166.849 237.811ZM30.9132 38.8608C29.895 38.8626 28.9191 39.2684 28.1997 39.9891C27.4804 40.7097 27.0764 41.6864 27.0764 42.7046V233.791C27.0764 234.81 27.4804 235.786 28.1997 236.507C28.9191 237.228 29.895 237.633 30.9132 237.635H166.849C167.867 237.633 168.844 237.228 169.564 236.507C170.285 235.787 170.691 234.81 170.692 233.791V42.7046C170.691 41.6857 170.285 40.7091 169.564 39.9887C168.844 39.2682 167.867 38.8626 166.849 38.8608H30.9132Z" fill="#E0E0E0"/>
<path d="M319.13 237.811H183.188C182.122 237.809 181.101 237.385 180.347 236.632C179.594 235.878 179.17 234.857 179.168 233.791V42.7046C179.179 41.6452 179.607 40.6328 180.36 39.8869C181.112 39.141 182.128 38.7218 183.188 38.72H319.13C320.188 38.7236 321.201 39.144 321.951 39.8898C322.701 40.6357 323.127 41.647 323.136 42.7046V233.791C323.136 234.855 322.714 235.875 321.964 236.629C321.213 237.382 320.194 237.807 319.13 237.811ZM183.188 38.8608C182.169 38.8626 181.192 39.2682 180.472 39.9887C179.751 40.7091 179.346 41.6857 179.344 42.7046V233.791C179.346 234.81 179.751 235.787 180.472 236.507C181.192 237.228 182.169 237.633 183.188 237.635H319.13C320.149 237.633 321.126 237.228 321.846 236.507C322.567 235.787 322.972 234.81 322.974 233.791V42.7046C322.972 41.6857 322.567 40.7091 321.846 39.9887C321.126 39.2682 320.149 38.8626 319.13 38.8608H183.188Z" fill="#E0E0E0"/>
<path d="M309.274 181.09C300.615 167.904 308.521 153.732 307.204 139.061C305.888 124.39 291.949 121.194 294.589 108.789C297.644 94.3712 289.499 80.5376 280.269 80.5376C271.04 80.5376 262.902 94.336 265.957 108.768C268.597 121.194 254.693 124.397 253.341 139.04C251.99 153.683 259.931 167.904 251.265 181.069C242.598 194.234 244.879 211.714 249.758 220.38C251.056 222.68 252.62 224.818 254.418 226.751C257.725 230.301 261.727 233.132 266.175 235.067C270.623 237.003 275.422 238.001 280.273 238.001C285.124 238.001 289.923 237.003 294.371 235.067C298.819 233.132 302.821 230.301 306.127 226.751C307.921 224.816 309.483 222.678 310.781 220.38C315.666 211.735 317.94 194.304 309.274 181.09Z" fill="#E0E0E0"/>
<path d="M280.269 191.094C280.845 191.094 281.414 191.207 281.945 191.427C282.476 191.647 282.959 191.97 283.366 192.376C283.772 192.783 284.095 193.266 284.315 193.797C284.535 194.328 284.648 194.898 284.648 195.473V269.21H275.891V195.473C275.891 194.898 276.004 194.328 276.224 193.797C276.444 193.266 276.767 192.783 277.173 192.376C277.58 191.97 278.062 191.647 278.594 191.427C279.125 191.207 279.694 191.094 280.269 191.094Z" fill="#F0F0F0"/>
<path d="M225.217 269.21H213.312V195.48C213.316 193.899 213.946 192.385 215.063 191.267C216.181 190.15 217.695 189.521 219.275 189.517C220.856 189.521 222.37 190.15 223.488 191.267C224.605 192.385 225.235 193.899 225.238 195.48L225.217 269.21Z" fill="#E0E0E0"/>
<path d="M219.253 249.322C239.537 249.322 255.981 232.878 255.981 212.594C255.981 192.31 239.537 175.866 219.253 175.866C198.969 175.866 182.525 192.31 182.525 212.594C182.525 232.878 198.969 249.322 219.253 249.322Z" fill="#F0F0F0"/>
<path d="M262.412 201.573C264.339 193.815 259.612 185.963 251.854 184.036C244.096 182.109 236.245 186.836 234.318 194.594C232.39 202.352 237.117 210.204 244.875 212.131C252.634 214.058 260.485 209.331 262.412 201.573Z" fill="#F0F0F0"/>
<path d="M198.001 190.889C198.761 186.219 195.592 181.816 190.922 181.056C186.251 180.295 181.849 183.465 181.088 188.135C180.328 192.805 183.497 197.208 188.167 197.968C192.837 198.729 197.24 195.559 198.001 190.889Z" fill="#F0F0F0"/>
<path d="M198.866 191.094C202.186 191.094 204.878 188.402 204.878 185.082C204.878 181.761 202.186 179.069 198.866 179.069C195.545 179.069 192.854 181.761 192.854 185.082C192.854 188.402 195.545 191.094 198.866 191.094Z" fill="#F0F0F0"/>
<path d="M143.617 225.203C137.906 226.053 132.448 228.136 127.622 231.306C127.58 225.73 126.559 220.443 123.94 216.17C119.955 220.049 116.724 225.076 114.084 230.483C113.12 220.352 110.451 210.496 104.545 204.251C95.6955 209.82 91.1336 219.099 88.9653 228.927C85.3831 222.3 80.1837 216.686 73.8504 212.608C68.4366 218.31 66.7048 226.195 66.8526 234.277C60.6997 227.11 53.8709 221.521 47.211 220.866C45.5707 232.193 49.0625 242.88 53.5048 251.328C56.3888 256.748 60.6974 261.279 65.9661 264.431C71.2348 267.583 77.264 269.238 83.4037 269.217H112.331C124.658 269.217 136.218 262.641 141.998 251.75C145.651 244.851 147.397 235.974 143.617 225.203Z" fill="#E0E0E0"/>
<path d="M135.351 78.9465C138.92 68.4781 136.055 61.0227 127.347 61.0227C121.87 61.0227 115.076 63.9584 108.458 68.7315C107.712 66.007 105.607 64.3808 102.221 64.3808C96.258 64.3808 88.0423 69.4214 81.6007 76.5318C79.7871 74.8088 77.3862 73.8398 74.8846 73.8214C69.1751 73.4976 62.2689 76.3981 56.2638 81.1078C55.9629 80.6867 55.5656 80.3436 55.1051 80.1072C54.6447 79.8709 54.1343 79.7481 53.6167 79.7491C50.3291 79.5661 45.8727 82.4947 43.6692 86.2822C43.5355 86.5145 43.4158 86.7469 43.2891 86.9862H137.083C137.365 83.6774 136.78 80.9177 135.351 78.9465Z" fill="#F0F0F0"/>
<path d="M135.641 142.511C137.387 137.4 136 133.76 131.733 133.76C129.051 133.76 125.735 135.168 122.504 137.526C122.33 136.869 121.927 136.296 121.369 135.909C120.81 135.522 120.132 135.347 119.456 135.414C116.548 135.414 112.535 137.878 109.381 141.356C108.497 140.512 107.323 140.038 106.101 140.033C103.285 139.871 99.9408 141.286 97.0051 143.588C96.8628 143.384 96.6745 143.217 96.4556 143.1C96.2367 142.982 95.9933 142.918 95.7449 142.912C94.1398 142.82 91.9645 144.25 90.8873 146.101L90.6973 146.439H136.514C136.705 145.067 136.395 143.672 135.641 142.511Z" fill="#F0F0F0"/>
<path d="M241.31 103.833C240.949 103.782 240.584 103.756 240.219 103.755C240.557 98.6515 238.607 95.3849 234.432 95.3849C231.426 95.3849 227.73 97.0886 223.971 99.9679C225.048 90.0556 221.598 83.614 213.784 83.614C207.49 83.614 199.514 87.838 191.636 94.6386C190.932 90.7526 188.623 88.4153 184.723 88.4153C177.873 88.4153 168.136 95.6243 160.329 105.79C159.439 104.618 158.298 103.66 156.99 102.986C155.682 102.312 154.239 101.94 152.768 101.897C146.249 101.439 138.146 105.579 130.944 112.323C130.682 111.754 130.265 111.271 129.741 110.929C129.216 110.586 128.606 110.399 127.98 110.387C124.411 110.134 119.532 113.858 116.639 118.835H247.048C250.11 111.288 247.674 104.685 241.31 103.833Z" fill="#F0F0F0"/>
<path d="M176.001 301.002C251.387 301.002 312.499 297.434 312.499 293.033C312.499 288.632 251.387 285.064 176.001 285.064C100.614 285.064 39.502 288.632 39.502 293.033C39.502 297.434 100.614 301.002 176.001 301.002Z" fill="#F5F5F5"/>
<path d="M34.3965 105.994L194.887 129.1L216.423 150.832L34.3965 105.994Z" fill="#0096EB"/>
<path opacity="0.6" d="M34.3965 105.994L194.887 129.1L216.423 150.832L34.3965 105.994Z" fill="white"/>
<path d="M34.3965 105.994L194.887 129.1L187.439 160.526L34.3965 105.994Z" fill="#0096EB"/>
<path opacity="0.2" d="M34.3965 105.994L194.887 129.1L187.439 160.526L34.3965 105.994Z" fill="black"/>
<path d="M184.144 69.6115L193.458 113.259C193.7 114.399 193.481 115.589 192.847 116.567C192.214 117.544 191.218 118.231 190.079 118.476L106.951 136.217C105.811 136.457 104.623 136.237 103.645 135.604C102.668 134.97 101.98 133.976 101.734 132.838L92.4129 89.1897C92.1728 88.0491 92.3942 86.8599 93.0289 85.8822C93.6635 84.9045 94.6596 84.218 95.7992 83.9731L178.927 66.2323C180.068 65.9921 181.257 66.2136 182.235 66.8482C183.213 67.4828 183.899 68.479 184.144 69.6185V69.6115Z" fill="#0096EB"/>
<path opacity="0.4" d="M184.144 69.6115L193.458 113.259C193.7 114.399 193.481 115.589 192.847 116.567C192.214 117.544 191.218 118.231 190.079 118.476L106.951 136.217C105.811 136.457 104.623 136.237 103.645 135.604C102.668 134.97 101.98 133.976 101.734 132.838L92.4129 89.1897C92.1728 88.0491 92.3942 86.8599 93.0289 85.8822C93.6635 84.9045 94.6596 84.218 95.7992 83.9731L178.927 66.2323C180.068 65.9921 181.257 66.2136 182.235 66.8482C183.213 67.4828 183.899 68.479 184.144 69.6185V69.6115Z" fill="black"/>
<path d="M182.096 66.7532L154.323 100.848C151.747 104.009 148.17 106.196 144.182 107.047C140.194 107.899 136.035 107.363 132.393 105.53L93.1172 85.7472C93.7526 84.8344 94.7116 84.1976 95.7994 83.966L178.928 66.2252C180.013 65.9944 181.144 66.183 182.096 66.7532Z" fill="#0096EB"/>
<path d="M34.3965 105.994L166.77 137.456L187.439 160.526L34.3965 105.994Z" fill="#0096EB"/>
<path opacity="0.6" d="M34.3965 105.994L166.77 137.456L187.439 160.526L34.3965 105.994Z" fill="white"/>
<path d="M82.6839 136.319L82.3281 136.927L97.059 145.555L97.4148 144.948L82.6839 136.319Z" fill="#0096EB"/>
<path d="M103.918 148.752L103.562 149.359L108.86 152.462L109.215 151.855L103.918 148.752Z" fill="#0096EB"/>
<path d="M34.3965 105.994L166.77 137.456L141.038 168.467L34.3965 105.994Z" fill="#0096EB"/>
<path d="M211.452 179.703C211.273 179.703 211.096 179.67 210.931 179.604L189.374 171.072C189.029 170.933 188.753 170.663 188.607 170.322C188.46 169.98 188.454 169.594 188.591 169.248C188.727 168.903 188.995 168.625 189.336 168.476C189.677 168.327 190.062 168.319 190.409 168.453L211.972 176.986C212.278 177.106 212.531 177.329 212.689 177.617C212.847 177.904 212.9 178.238 212.838 178.56C212.776 178.882 212.604 179.173 212.351 179.381C212.098 179.59 211.78 179.704 211.452 179.703Z" fill="#0096EB"/>
<path opacity="0.3" d="M211.452 179.703C211.273 179.703 211.096 179.67 210.931 179.604L189.374 171.072C189.029 170.933 188.753 170.663 188.607 170.322C188.46 169.98 188.454 169.594 188.591 169.248C188.727 168.903 188.995 168.625 189.336 168.476C189.677 168.327 190.062 168.319 190.409 168.453L211.972 176.986C212.278 177.106 212.531 177.329 212.689 177.617C212.847 177.904 212.9 178.238 212.838 178.56C212.776 178.882 212.604 179.173 212.351 179.381C212.098 179.59 211.78 179.704 211.452 179.703Z" fill="black"/>
<path d="M210.178 167.341C210.001 167.34 209.826 167.304 209.664 167.235L198.083 162.624C197.91 162.557 197.752 162.456 197.617 162.328C197.483 162.199 197.376 162.046 197.302 161.875C197.227 161.705 197.187 161.522 197.184 161.336C197.18 161.151 197.214 160.966 197.282 160.794C197.35 160.621 197.452 160.463 197.581 160.33C197.711 160.197 197.865 160.091 198.036 160.017C198.206 159.944 198.39 159.905 198.576 159.903C198.761 159.901 198.945 159.936 199.118 160.005L210.699 164.595C211.046 164.732 211.324 165 211.473 165.342C211.623 165.684 211.63 166.071 211.494 166.418C211.395 166.688 211.216 166.921 210.98 167.086C210.745 167.251 210.465 167.34 210.178 167.341Z" fill="#0096EB"/>
<path opacity="0.5" d="M210.178 167.341C210.001 167.34 209.826 167.304 209.664 167.235L198.083 162.624C197.91 162.557 197.752 162.456 197.617 162.328C197.483 162.199 197.376 162.046 197.302 161.875C197.227 161.705 197.187 161.522 197.184 161.336C197.18 161.151 197.214 160.966 197.282 160.794C197.35 160.621 197.452 160.463 197.581 160.33C197.711 160.197 197.865 160.091 198.036 160.017C198.206 159.944 198.39 159.905 198.576 159.903C198.761 159.901 198.945 159.936 199.118 160.005L210.699 164.595C211.046 164.732 211.324 165 211.473 165.342C211.623 165.684 211.63 166.071 211.494 166.418C211.395 166.688 211.216 166.921 210.98 167.086C210.745 167.251 210.465 167.34 210.178 167.341Z" fill="white"/>
<path d="M185.967 179.52C185.791 179.518 185.617 179.485 185.453 179.421L164.425 171.072C164.251 171.005 164.093 170.904 163.959 170.776C163.825 170.647 163.718 170.494 163.643 170.323C163.569 170.153 163.529 169.97 163.526 169.784C163.522 169.599 163.556 169.414 163.624 169.242C163.692 169.069 163.794 168.911 163.923 168.778C164.053 168.645 164.207 168.539 164.378 168.465C164.548 168.392 164.732 168.353 164.917 168.351C165.103 168.349 165.287 168.384 165.459 168.453L186.488 176.774C186.793 176.895 187.046 177.118 187.204 177.406C187.362 177.693 187.415 178.027 187.353 178.349C187.292 178.671 187.119 178.962 186.866 179.17C186.613 179.379 186.295 179.493 185.967 179.492V179.52Z" fill="#0096EB"/>
<path opacity="0.3" d="M185.967 179.52C185.791 179.518 185.617 179.485 185.453 179.421L164.425 171.072C164.251 171.005 164.093 170.904 163.959 170.776C163.825 170.647 163.718 170.494 163.643 170.323C163.569 170.153 163.529 169.97 163.526 169.784C163.522 169.599 163.556 169.414 163.624 169.242C163.692 169.069 163.794 168.911 163.923 168.778C164.053 168.645 164.207 168.539 164.378 168.465C164.548 168.392 164.732 168.353 164.917 168.351C165.103 168.349 165.287 168.384 165.459 168.453L186.488 176.774C186.793 176.895 187.046 177.118 187.204 177.406C187.362 177.693 187.415 178.027 187.353 178.349C187.292 178.671 187.119 178.962 186.866 179.17C186.613 179.379 186.295 179.493 185.967 179.492V179.52Z" fill="black"/>
<path d="M262.1 116.033C263.965 119.673 265.676 123.32 267.302 127.051C268.929 130.782 270.442 134.563 271.766 138.526L272.244 140.026C272.329 140.293 272.449 140.73 272.519 141.039C272.589 141.349 272.653 141.701 272.688 141.997C272.849 143.133 272.931 144.278 272.934 145.425C272.945 147.541 272.846 149.656 272.639 151.761C272.245 155.837 271.606 159.886 270.724 163.884L266.859 163.455C266.809 159.491 266.774 155.485 266.633 151.578C266.57 149.635 266.457 147.685 266.26 145.855C266.171 144.995 266.03 144.142 265.838 143.299C265.803 143.102 265.746 142.954 265.704 142.792C265.662 142.63 265.62 142.574 265.549 142.363L265.014 141.032C263.543 137.47 261.889 133.88 260.199 130.303L255.088 119.574L262.1 116.033Z" fill="#E4897B"/>
<path d="M266.916 162.216L265.113 165.588L270.872 167.193C270.872 167.193 271.97 164.483 270.661 162.342L266.916 162.216Z" fill="#E4897B"/>
<path d="M262.908 170.445L268.202 170.868L270.87 167.193L265.112 165.588L262.908 170.445Z" fill="#E4897B"/>
<path d="M237.861 91.7032C237.784 92.1185 237.495 92.4072 237.228 92.3508C236.96 92.2945 236.812 91.9214 236.897 91.5131C236.981 91.1048 237.263 90.8091 237.53 90.8654C237.798 90.9217 237.953 91.2948 237.861 91.7032Z" fill="#263238"/>
<path d="M237.537 92.4071C236.794 93.5589 235.896 94.6035 234.869 95.5117C235.109 95.7668 235.401 95.9668 235.726 96.0981C236.05 96.2294 236.399 96.2887 236.749 96.2721L237.537 92.4071Z" fill="#DE5753"/>
<path d="M239.817 89.739C239.751 89.7373 239.687 89.7095 239.641 89.6615C239.439 89.4302 239.185 89.2498 238.9 89.1348C238.615 89.0198 238.307 88.9736 238.001 88.9998C237.942 89.0004 237.886 88.9802 237.841 88.9429C237.796 88.9057 237.766 88.8537 237.756 88.7962C237.746 88.7388 237.756 88.6796 237.786 88.6292C237.815 88.5788 237.861 88.5405 237.916 88.5211C238.308 88.4715 238.705 88.5194 239.074 88.6607C239.442 88.8019 239.77 89.0321 240.028 89.3307C240.073 89.3767 240.099 89.4387 240.099 89.5031C240.099 89.5676 240.073 89.6296 240.028 89.6756C240 89.7014 239.967 89.7205 239.93 89.7315C239.893 89.7424 239.855 89.745 239.817 89.739Z" fill="#263238"/>
<path d="M249.505 97.4548C248.766 101.242 248.026 108.17 250.673 110.697C250.673 110.697 249.639 114.534 242.606 114.534C234.862 114.534 238.917 110.697 238.917 110.697C243.141 109.69 243.021 106.558 242.289 103.622L249.505 97.4548Z" fill="#E4897B"/>
<path d="M251.736 113.084C252.293 111.232 252.905 109.113 251.638 108.444C250.23 107.74 242.577 106.966 239.937 108.339C237.297 109.711 238.051 113.478 238.051 113.478L251.736 113.084Z" fill="#263238"/>
<path d="M267.97 288.64C267.751 288.669 267.529 288.654 267.316 288.596C267.104 288.538 266.905 288.438 266.731 288.302C266.67 288.217 266.637 288.115 266.637 288.01C266.637 287.905 266.67 287.803 266.731 287.718C266.771 287.645 266.827 287.581 266.893 287.532C266.96 287.482 267.037 287.447 267.118 287.429C267.879 287.26 269.301 288.232 269.364 288.274C269.382 288.289 269.396 288.309 269.405 288.331C269.414 288.353 269.416 288.377 269.413 288.401C269.409 288.423 269.398 288.445 269.382 288.461C269.366 288.477 269.345 288.488 269.322 288.492C268.877 288.588 268.424 288.638 267.97 288.64ZM267.322 287.654H267.175C267.127 287.664 267.082 287.685 267.043 287.714C267.004 287.743 266.972 287.78 266.949 287.823C266.837 288.02 266.907 288.105 266.949 288.133C267.167 288.429 268.223 288.429 268.998 288.302C268.493 287.969 267.921 287.753 267.322 287.668V287.654Z" fill="#36454F"/>
<path d="M269.294 288.513H269.237C268.702 288.218 267.668 287.105 267.773 286.514C267.791 286.423 267.84 286.34 267.912 286.281C267.984 286.222 268.074 286.19 268.167 286.19C268.26 286.18 268.354 286.189 268.443 286.215C268.533 286.242 268.616 286.286 268.688 286.345C269.287 286.838 269.392 288.33 269.392 288.394C269.395 288.416 269.391 288.438 269.381 288.459C269.371 288.479 269.356 288.495 269.336 288.506C269.323 288.512 269.308 288.514 269.294 288.513ZM268.252 286.401H268.224C268.062 286.401 268.048 286.5 268.041 286.528C267.977 286.873 268.639 287.725 269.167 288.126C269.131 287.538 268.921 286.974 268.562 286.507C268.514 286.47 268.46 286.443 268.402 286.427C268.344 286.411 268.283 286.407 268.224 286.415L268.252 286.401Z" fill="#36454F"/>
<path d="M236.918 288.64C236.256 288.64 235.615 288.549 235.397 288.253C235.342 288.175 235.313 288.081 235.312 287.985C235.312 287.89 235.342 287.796 235.397 287.718C235.44 287.645 235.497 287.583 235.565 287.533C235.632 287.483 235.71 287.448 235.791 287.429C236.643 287.197 238.46 288.225 238.537 288.267C238.558 288.28 238.574 288.299 238.584 288.322C238.594 288.344 238.597 288.369 238.593 288.394C238.589 288.418 238.578 288.441 238.56 288.459C238.542 288.476 238.519 288.488 238.495 288.492C237.975 288.59 237.447 288.64 236.918 288.64ZM236.094 287.64C236.017 287.629 235.939 287.629 235.862 287.64C235.812 287.65 235.765 287.67 235.724 287.699C235.683 287.728 235.648 287.766 235.623 287.809C235.531 287.964 235.566 288.035 235.623 288.077C235.855 288.401 237.164 288.422 238.136 288.288C237.503 287.946 236.809 287.731 236.094 287.654V287.64Z" fill="#36454F"/>
<path d="M238.479 288.513H238.43C237.803 288.239 236.572 287.105 236.663 286.535C236.663 286.394 236.783 286.225 237.121 286.19C237.246 286.171 237.375 286.18 237.496 286.217C237.618 286.253 237.73 286.316 237.825 286.401C238.486 286.936 238.62 288.33 238.627 288.394C238.63 288.415 238.627 288.437 238.618 288.457C238.609 288.477 238.596 288.494 238.578 288.506C238.563 288.514 238.546 288.519 238.529 288.52C238.512 288.522 238.495 288.519 238.479 288.513ZM237.219 286.401H237.142C236.924 286.401 236.909 286.514 236.902 286.542C236.846 286.894 237.691 287.774 238.31 288.154C238.25 287.563 238.003 287.006 237.606 286.563C237.506 286.476 237.38 286.424 237.247 286.415L237.219 286.401Z" fill="#36454F"/>
<path d="M244.169 288.387H238.994L238.48 276.412H243.655L244.169 288.387Z" fill="#E4897B"/>
<path d="M275.221 288.387H270.047L267.449 276.412H272.617L275.221 288.387Z" fill="#E4897B"/>
<path d="M269.682 287.788H275.49C275.593 287.789 275.694 287.825 275.774 287.89C275.855 287.955 275.911 288.046 275.933 288.147L276.954 292.744C276.977 292.856 276.975 292.972 276.947 293.083C276.92 293.194 276.868 293.297 276.794 293.385C276.721 293.473 276.629 293.544 276.525 293.591C276.421 293.639 276.308 293.662 276.194 293.66C274.166 293.624 273.181 293.505 270.625 293.505C269.055 293.505 265.817 293.674 263.641 293.674C261.466 293.674 261.191 291.562 262.078 291.329C266.063 290.456 267.563 289.253 268.837 288.112C269.068 287.903 269.37 287.787 269.682 287.788Z" fill="#263238"/>
<path d="M239.029 287.788H244.661C244.764 287.789 244.865 287.825 244.945 287.89C245.026 287.955 245.082 288.046 245.104 288.147L246.125 292.744C246.15 292.855 246.149 292.97 246.122 293.081C246.096 293.191 246.045 293.294 245.973 293.382C245.901 293.47 245.811 293.541 245.708 293.589C245.605 293.637 245.492 293.661 245.379 293.66C243.344 293.624 240.402 293.505 237.839 293.505C234.847 293.505 232.256 293.674 228.743 293.674C226.631 293.674 226.033 291.562 226.92 291.329C230.968 290.442 234.27 290.351 237.769 288.197C238.141 287.943 238.578 287.802 239.029 287.788Z" fill="#263238"/>
<path d="M236.543 119.779C232.219 119.443 227.915 118.872 223.653 118.068C221.541 117.66 219.387 117.202 217.247 116.625C215.053 116.063 212.899 115.358 210.798 114.513C210.256 114.287 209.707 114.041 209.165 113.809C208.555 113.508 207.966 113.165 207.405 112.781C206.391 112.112 205.518 111.415 204.652 110.725C202.927 109.317 201.329 107.909 199.724 106.466C196.577 103.551 193.592 100.538 190.713 97.3702L193.304 94.4768L203.519 101.82C205.201 103.03 206.905 104.22 208.58 105.34C209.411 105.896 210.263 106.417 211.044 106.86C211.371 107.047 211.71 107.211 212.058 107.353C212.474 107.515 212.896 107.677 213.339 107.832C217.144 109.003 221.035 109.874 224.977 110.436C228.996 111.07 233.15 111.591 237.163 112.013L236.543 119.779Z" fill="#E4897B"/>
<path d="M259.93 111.866C264.781 112.978 269.681 127.15 269.681 127.15L259.705 134.309C259.705 134.309 256.889 127.706 254.172 121.933C251.328 115.886 254.974 110.732 259.93 111.866Z" fill="#36454F"/>
<path opacity="0.4" d="M259.93 111.866C264.781 112.978 269.681 127.15 269.681 127.15L259.705 134.309C259.705 134.309 256.889 127.706 254.172 121.933C251.328 115.886 254.974 110.732 259.93 111.866Z" fill="black"/>
<path d="M257.136 119.61L255.158 124.038C257.207 128.459 259.079 132.838 259.579 134.006C259.509 128.776 258.516 122.285 257.136 119.61Z" fill="#36454F"/>
<path opacity="0.6" d="M257.136 119.61L255.158 124.038C257.207 128.459 259.079 132.838 259.579 134.006C259.509 128.776 258.516 122.285 257.136 119.61Z" fill="black"/>
<path d="M230.961 112.133C230.961 112.133 225.456 118.35 230.651 156.837H258.312C258.509 152.613 255.84 131.873 259.931 111.866C256.873 111.277 253.781 110.887 250.673 110.697C246.757 110.472 242.832 110.472 238.916 110.697C236.231 110.968 233.571 111.448 230.961 112.133Z" fill="#36454F"/>
<path opacity="0.4" d="M230.961 112.133C230.961 112.133 225.456 118.35 230.651 156.837H258.312C258.509 152.613 255.84 131.873 259.931 111.866C256.873 111.277 253.781 110.887 250.673 110.697C246.757 110.472 242.832 110.472 238.916 110.697C236.231 110.968 233.571 111.448 230.961 112.133Z" fill="black"/>
<path d="M228.913 119.61C228.73 121.067 228.59 122.792 228.498 124.826C231.23 124.006 233.825 122.787 236.2 121.208L228.913 119.61Z" fill="#36454F"/>
<path opacity="0.6" d="M228.913 119.61C228.73 121.067 228.59 122.792 228.498 124.826C231.23 124.006 233.825 122.787 236.2 121.208L228.913 119.61Z" fill="black"/>
<path d="M240.769 120.384C237.066 123.665 222.929 123.334 222.929 123.334L222.465 109.648C227.239 110.328 232.054 110.676 236.876 110.69C244.753 110.528 244.81 116.766 240.769 120.384Z" fill="#36454F"/>
<path opacity="0.4" d="M240.769 120.384C237.066 123.665 222.929 123.334 222.929 123.334L222.465 109.648C227.239 110.328 232.054 110.676 236.876 110.69C244.753 110.528 244.81 116.766 240.769 120.384Z" fill="black"/>
<path d="M193.438 94.5051L189.918 90.3585L186.123 94.5825C186.123 94.5825 188.46 98.5108 192.17 97.8913L193.438 94.5051Z" fill="#E4897B"/>
<path d="M184.877 85.522L183.512 90.9357L186.095 94.5543L189.89 90.3585L184.877 85.522Z" fill="#E4897B"/>
<path d="M238.48 276.419L238.748 282.586H243.922L243.655 276.419H238.48Z" fill="#CE6F64"/>
<path d="M272.624 276.419H267.449L268.787 282.586H273.961L272.624 276.419Z" fill="#CE6F64"/>
<path d="M241.591 86.5921C236.952 84.4801 235.487 75.0957 248.835 77.4401C248.835 77.4401 246.822 79.6647 250.905 81.0727C254.988 82.4807 251.574 91.1751 241.591 86.5921Z" fill="#263238"/>
<path d="M251.674 93.632C250.343 98.56 249.822 101.559 246.746 103.622C242.141 106.719 236.418 103.164 236.235 97.9053C236.073 93.1814 238.276 85.8669 243.592 84.8672C244.765 84.6372 245.977 84.7116 247.114 85.0833C248.25 85.455 249.272 86.1116 250.083 86.9905C250.893 87.8694 251.465 88.9413 251.743 90.104C252.022 91.2666 251.998 92.4813 251.674 93.632Z" fill="#E4897B"/>
<path d="M248.653 79.904C251.814 81.664 256.094 82.72 255.693 85.2263C255.165 88.2887 258.276 86.3738 257.551 90.9287C257.08 93.9066 251.588 102.932 247.695 102.495C241.88 101.791 242.619 92.9492 242.598 88.2887C242.584 85.536 242.457 76.4333 248.653 79.904Z" fill="#263238"/>
<path d="M241.902 83.8535C240.494 84.1844 238.629 92.3015 244.085 93.0478C250.357 93.8996 241.902 83.8535 241.902 83.8535Z" fill="#263238"/>
<path d="M242.043 86.7328C240.318 86.8877 236.411 84.8109 236.89 81.6851C236.89 81.664 239.361 85.3389 242.043 86.7328Z" fill="#263238"/>
<path d="M244.606 93.6954C244.076 94.8561 243.178 95.8091 242.05 96.4058C240.565 97.1802 239.727 96.0538 240.065 94.5613C240.367 93.2237 241.508 91.2032 243.036 91.0413C244.563 90.8794 245.218 92.2874 244.606 93.6954Z" fill="#E4897B"/>
<path d="M252.35 88C253.402 87.5435 254.324 86.8331 255.034 85.9325C255.744 85.0319 256.22 83.9693 256.419 82.8397C256.419 82.8397 258.742 89.2954 252.35 88Z" fill="#263238"/>
<path d="M258.221 87.8945C257.731 87.5654 257.167 87.363 256.58 87.3053C255.992 87.2475 255.4 87.3363 254.855 87.5636C254.855 87.5636 257.024 84.7546 258.221 87.8945Z" fill="#263238"/>
<path d="M240.465 156.837C240.465 156.837 246.336 196.36 249.553 211.165C253.073 227.357 266.379 281.396 266.379 281.396H275.848C275.848 281.396 267.083 228.687 265.07 212.608C262.887 195.184 258.311 156.809 258.311 156.809L240.465 156.837Z" fill="#36454F"/>
<path opacity="0.5" d="M240.465 156.837C240.465 156.837 246.336 196.36 249.553 211.165C253.073 227.357 266.379 281.396 266.379 281.396H275.848C275.848 281.396 267.083 228.687 265.07 212.608C262.887 195.184 258.311 156.809 258.311 156.809L240.465 156.837Z" fill="#005280"/>
<path d="M264.867 277.904C264.824 277.904 265.845 281.544 265.845 281.544H276.504L276.307 278.298L264.867 277.904Z" fill="#36454F"/>
<path opacity="0.1" d="M264.867 277.904C264.824 277.904 265.845 281.544 265.845 281.544H276.504L276.307 278.298L264.867 277.904Z" fill="black"/>
<path d="M244.176 170.917C250.963 172.248 250.245 197.557 249.428 210.573C247.471 201.372 244.606 183.667 242.648 171.1C243.122 170.867 243.661 170.802 244.176 170.917Z" fill="#36454F"/>
<path opacity="0.4" d="M244.176 170.917C250.963 172.248 250.245 197.557 249.428 210.573C247.471 201.372 244.606 183.667 242.648 171.1C243.122 170.867 243.661 170.802 244.176 170.917Z" fill="#1B4C68"/>
<path d="M230.651 156.837C230.651 156.837 229.947 195.501 230.503 211.277C231.087 227.681 236.839 281.396 236.839 281.396H245.597C245.597 281.396 245.921 228.638 246.301 212.531C246.73 194.966 248.849 156.837 248.849 156.837H230.651Z" fill="#36454F"/>
<path opacity="0.5" d="M230.651 156.837C230.651 156.837 229.947 195.501 230.503 211.277C231.087 227.681 236.839 281.396 236.839 281.396H245.597C245.597 281.396 245.921 228.638 246.301 212.531C246.73 194.966 248.849 156.837 248.849 156.837H230.651Z" fill="#005280"/>
<path d="M238.656 275.102C238.635 275.102 238.615 275.094 238.599 275.08C238.583 275.066 238.574 275.046 238.572 275.025C237.023 260.156 233.384 224.182 232.94 211.278C232.468 198.106 232.898 168.552 233.039 159.808C233.039 159.786 233.047 159.764 233.063 159.748C233.079 159.733 233.101 159.724 233.123 159.724C233.146 159.724 233.168 159.732 233.185 159.748C233.202 159.764 233.213 159.785 233.215 159.808C233.074 168.552 232.644 198.106 233.116 211.271C233.574 224.175 237.213 260.135 238.748 275.004C238.748 275.028 238.74 275.051 238.724 275.069C238.709 275.087 238.687 275.099 238.664 275.102H238.656Z" fill="#36454F"/>
<path opacity="0.4" d="M238.656 275.102C238.635 275.102 238.615 275.094 238.599 275.08C238.583 275.066 238.574 275.046 238.572 275.025C237.023 260.156 233.384 224.182 232.94 211.278C232.468 198.106 232.898 168.552 233.039 159.808C233.039 159.786 233.047 159.764 233.063 159.748C233.079 159.733 233.101 159.724 233.123 159.724C233.146 159.724 233.168 159.732 233.185 159.748C233.202 159.764 233.213 159.785 233.215 159.808C233.074 168.552 232.644 198.106 233.116 211.271C233.574 224.175 237.213 260.135 238.748 275.004C238.748 275.028 238.74 275.051 238.724 275.069C238.709 275.087 238.687 275.099 238.664 275.102H238.656Z" fill="white"/>
<path d="M235.136 277.904C235.101 277.904 235.636 281.544 235.636 281.544H246.288L246.576 278.298L235.136 277.904Z" fill="#36454F"/>
<path opacity="0.1" d="M235.136 277.904C235.101 277.904 235.636 281.544 235.636 281.544H246.288L246.576 278.298L235.136 277.904Z" fill="black"/>
</svg>
