<svg width="24" height="24" viewBox="0 0 24 24" fill="none" xmlns="http://www.w3.org/2000/svg">
<path d="M3.59961 4.79998C3.59961 4.13723 4.13687 3.59998 4.79961 3.59998H19.1996C19.8624 3.59998 20.3996 4.13723 20.3996 4.79998V7.19998C20.3996 7.86272 19.8624 8.39998 19.1996 8.39998H4.79961C4.13687 8.39998 3.59961 7.86272 3.59961 7.19998V4.79998Z" fill="white"/>
<path d="M3.59961 12C3.59961 11.3372 4.13687 10.8 4.79961 10.8H11.9996C12.6624 10.8 13.1996 11.3372 13.1996 12V19.2C13.1996 19.8627 12.6624 20.4 11.9996 20.4H4.79961C4.13687 20.4 3.59961 19.8627 3.59961 19.2V12Z" fill="white"/>
<path d="M16.7996 10.8C16.1369 10.8 15.5996 11.3372 15.5996 12V19.2C15.5996 19.8627 16.1369 20.4 16.7996 20.4H19.1996C19.8624 20.4 20.3996 19.8627 20.3996 19.2V12C20.3996 11.3372 19.8624 10.8 19.1996 10.8H16.7996Z" fill="white"/>
</svg>
