<svg width="24" height="24" viewBox="0 0 24 24" fill="none" xmlns="http://www.w3.org/2000/svg">
<path d="M3.59961 4.79961C3.59961 4.13687 4.13687 3.59961 4.79961 3.59961H19.1996C19.8624 3.59961 20.3996 4.13687 20.3996 4.79961V7.19961C20.3996 7.86235 19.8624 8.39961 19.1996 8.39961H4.79961C4.13687 8.39961 3.59961 7.86235 3.59961 7.19961V4.79961Z" fill="#36454F"/>
<path d="M3.59961 11.9996C3.59961 11.3369 4.13687 10.7996 4.79961 10.7996H11.9996C12.6624 10.7996 13.1996 11.3369 13.1996 11.9996V19.1996C13.1996 19.8624 12.6624 20.3996 11.9996 20.3996H4.79961C4.13687 20.3996 3.59961 19.8624 3.59961 19.1996V11.9996Z" fill="#36454F"/>
<path d="M16.7996 10.7996C16.1369 10.7996 15.5996 11.3369 15.5996 11.9996V19.1996C15.5996 19.8624 16.1369 20.3996 16.7996 20.3996H19.1996C19.8624 20.3996 20.3996 19.8624 20.3996 19.1996V11.9996C20.3996 11.3369 19.8624 10.7996 19.1996 10.7996H16.7996Z" fill="#36454F"/>
</svg>
