<svg width="24" height="24" viewBox="0 0 24 24" fill="none" xmlns="http://www.w3.org/2000/svg">
<path d="M15.6002 7.19961C15.6002 9.18783 13.9884 10.7996 12.0002 10.7996C10.012 10.7996 8.4002 9.18783 8.4002 7.19961C8.4002 5.21138 10.012 3.59961 12.0002 3.59961C13.9884 3.59961 15.6002 5.21138 15.6002 7.19961Z" fill="white"/>
<path d="M21.6002 9.59961C21.6002 10.9251 20.5257 11.9996 19.2002 11.9996C17.8747 11.9996 16.8002 10.9251 16.8002 9.59961C16.8002 8.27413 17.8747 7.19961 19.2002 7.19961C20.5257 7.19961 21.6002 8.27413 21.6002 9.59961Z" fill="white"/>
<path d="M16.8002 17.9996C16.8002 15.3486 14.6512 13.1996 12.0002 13.1996C9.34923 13.1996 7.20019 15.3486 7.20019 17.9996V21.5996H16.8002V17.9996Z" fill="white"/>
<path d="M7.20019 9.59961C7.20019 10.9251 6.12568 11.9996 4.8002 11.9996C3.47471 11.9996 2.4002 10.9251 2.4002 9.59961C2.4002 8.27413 3.47471 7.19961 4.8002 7.19961C6.12568 7.19961 7.20019 8.27413 7.20019 9.59961Z" fill="white"/>
<path d="M19.2002 21.5996V17.9996C19.2002 16.7346 18.874 15.5459 18.3011 14.5128C18.5885 14.4389 18.8897 14.3996 19.2002 14.3996C21.1884 14.3996 22.8002 16.0114 22.8002 17.9996V21.5996H19.2002Z" fill="white"/>
<path d="M5.69931 14.5128C5.12641 15.5459 4.8002 16.7346 4.8002 17.9996V21.5996H1.2002V17.9996C1.2002 16.0114 2.81197 14.3996 4.8002 14.3996C5.11065 14.3996 5.41192 14.4389 5.69931 14.5128Z" fill="white"/>
</svg>
