<svg width="24" height="24" viewBox="0 0 24 24" fill="none" xmlns="http://www.w3.org/2000/svg">
<path d="M15.5992 7.19961C15.5992 9.18783 13.9874 10.7996 11.9992 10.7996C10.011 10.7996 8.39922 9.18783 8.39922 7.19961C8.39922 5.21138 10.011 3.59961 11.9992 3.59961C13.9874 3.59961 15.5992 5.21138 15.5992 7.19961Z" fill="#36454F"/>
<path d="M21.5992 9.59961C21.5992 10.9251 20.5247 11.9996 19.1992 11.9996C17.8737 11.9996 16.7992 10.9251 16.7992 9.59961C16.7992 8.27413 17.8737 7.19961 19.1992 7.19961C20.5247 7.19961 21.5992 8.27413 21.5992 9.59961Z" fill="#36454F"/>
<path d="M16.7992 17.9996C16.7992 15.3486 14.6502 13.1996 11.9992 13.1996C9.34825 13.1996 7.19922 15.3486 7.19922 17.9996V21.5996H16.7992V17.9996Z" fill="#36454F"/>
<path d="M7.19922 9.59961C7.19922 10.9251 6.1247 11.9996 4.79922 11.9996C3.47374 11.9996 2.39922 10.9251 2.39922 9.59961C2.39922 8.27413 3.47374 7.19961 4.79922 7.19961C6.1247 7.19961 7.19922 8.27413 7.19922 9.59961Z" fill="#36454F"/>
<path d="M19.1992 21.5996V17.9996C19.1992 16.7346 18.873 15.5459 18.3001 14.5128C18.5875 14.4389 18.8888 14.3996 19.1992 14.3996C21.1874 14.3996 22.7992 16.0114 22.7992 17.9996V21.5996H19.1992Z" fill="#36454F"/>
<path d="M5.69833 14.5128C5.12544 15.5459 4.79922 16.7346 4.79922 17.9996V21.5996H1.19922V17.9996C1.19922 16.0114 2.81099 14.3996 4.79922 14.3996C5.10967 14.3996 5.41094 14.4389 5.69833 14.5128Z" fill="#36454F"/>
</svg>
