<svg width="24" height="24" viewBox="0 0 24 24" fill="none" xmlns="http://www.w3.org/2000/svg">
<path d="M19 4.0002H14.82C14.6152 3.41564 14.2339 2.90916 13.7287 2.55082C13.2235 2.19248 12.6194 2 12 2C11.3806 2 10.7765 2.19248 10.2713 2.55082C9.76612 2.90916 9.38476 3.41564 9.18 4.0002H5C4.47005 4.00179 3.96227 4.21301 3.58753 4.58774C3.2128 4.96247 3.00158 5.47026 3 6.0002V20.0002C3.00158 20.5301 3.2128 21.0379 3.58753 21.4127C3.96227 21.7874 4.47005 21.9986 5 22.0002H19C19.5299 21.9986 20.0377 21.7874 20.4125 21.4127C20.7872 21.0379 20.9984 20.5301 21 20.0002V6.0002C20.9984 5.47026 20.7872 4.96247 20.4125 4.58774C20.0377 4.21301 19.5299 4.00179 19 4.0002ZM12 4.0002C12.1978 4.0002 12.3911 4.05885 12.5556 4.16873C12.72 4.27861 12.8482 4.43479 12.9239 4.61752C12.9996 4.80025 13.0194 5.00131 12.9808 5.19529C12.9422 5.38927 12.847 5.56746 12.7071 5.70731C12.5673 5.84716 12.3891 5.9424 12.1951 5.98099C12.0011 6.01957 11.8 5.99977 11.6173 5.92408C11.4346 5.84839 11.2784 5.72022 11.1685 5.55577C11.0586 5.39132 11 5.19798 11 5.0002C11.0008 4.73523 11.1064 4.48133 11.2938 4.29397C11.4811 4.1066 11.735 4.00099 12 4.0002ZM10 9.0002L12.79 11.7942L15.31 9.2742L14 8.0002H18V12.0002L16.724 10.6892L12.792 14.6242L10 11.8302L7.414 14.4142L6 13.0002L10 9.0002ZM19 19.0002H5V17.0002H19V19.0002Z" fill="#36454F"/>
</svg>
